<?xml version="1.0" encoding="UTF-8"?>
<svg version="1.1" xmlns="http://www.w3.org/2000/svg" width="180" height="180">
<path d="M0 0 C59.4 0 118.8 0 180 0 C180 59.4 180 118.8 180 180 C120.6 180 61.2 180 0 180 C0 120.6 0 61.2 0 0 Z " fill="#0C0C0C" transform="translate(0,0)"/>
<path d="M0 0 C30.67739341 5.37207811 30.67739341 5.37207811 39.125 15.125 C42.93555423 20.96784983 43.66477334 25.04203908 43 32 C41.13000922 38.23330261 36.2672328 42.43708799 31 46 C26.43412835 48.04819327 21.7972997 49.59031512 17 51 C15.80890625 51.36609375 14.6178125 51.7321875 13.390625 52.109375 C7.58380256 53.63466937 2.26158783 54.22125743 -3.125 51.3125 C-5 49 -5 49 -5.5625 46.5 C-4.80509368 43.13374968 -3.73884084 42.09672026 -1 40 C1.68992503 39.65065909 4.06466704 39.49472734 6.75 39.5 C13.17852783 39.33250734 17.51574926 38.40023546 23 35 C23.66 35 24.32 35 25 35 C26.35535266 30.93394203 26.65802963 27.24728214 26 23 C22.17296474 17.82224641 17.17272006 15.42637719 11 14.0625 C6.64599222 13.07637156 3.19619316 11.19619316 0 8 C-0.14115161 5.32941149 -0.04247107 2.67567762 0 0 Z " fill="#E2E2E2" transform="translate(85,75)"/>
<path d="M0 0 C3.1875 1.6875 3.1875 1.6875 5 4 C5.625 6.5 5.625 6.5 5 9 C0.55588245 13.21021663 -2.14192624 14.05565422 -8.125 14.25 C-14.18605439 14.66615213 -18.46450931 15.88115544 -23 20 C-25.07324138 23.10986207 -25.27392186 23.89108387 -25.25 27.4375 C-25.25515625 28.19933594 -25.2603125 28.96117188 -25.265625 29.74609375 C-24.95884714 32.34919412 -24.51442193 33.85152793 -23 36 C-18.50807208 38.30292682 -13.37859497 39.48312264 -8.52734375 40.88085938 C-3.87368592 42.34276603 -1.04308881 44.18599536 2 48 C2.3125 51.8125 2.3125 51.8125 2 55 C-31.48765501 48.5025067 -31.48765501 48.5025067 -40 36 C-42.29838098 31.8410249 -42.57178253 27.66648322 -42 23 C-39.4363333 15.61060773 -33.79759177 10.70527961 -27 7.1875 C-24.07817955 5.82427982 -21.24095464 4.69745155 -18.125 3.875 C-15.03188104 3.23574183 -15.03188104 3.23574183 -13.14453125 1.47265625 C-9.20281122 -1.2341351 -4.58776444 -0.61079704 0 0 Z " fill="#E2E2E2" transform="translate(96,53)"/>
<path d="M0 0 C1.25554687 -0.00128906 2.51109375 -0.00257812 3.8046875 -0.00390625 C4.46178711 -0.00181152 5.11888672 0.0002832 5.79589844 0.00244141 C7.80411335 0.00779016 9.81210459 0.00249559 11.8203125 -0.00390625 C13.07585937 -0.00261719 14.33140625 -0.00132813 15.625 0 C16.78644531 0.00112793 17.94789063 0.00225586 19.14453125 0.00341797 C21.8125 0.1328125 21.8125 0.1328125 22.8125 1.1328125 C22.9108721 2.46324875 22.94328592 3.79874594 22.9453125 5.1328125 C22.94724609 6.339375 22.94724609 6.339375 22.94921875 7.5703125 C22.94535156 8.4159375 22.94148438 9.2615625 22.9375 10.1328125 C22.94330078 11.40125 22.94330078 11.40125 22.94921875 12.6953125 C22.94792969 13.4996875 22.94664062 14.3040625 22.9453125 15.1328125 C22.94418457 15.8753125 22.94305664 16.6178125 22.94189453 17.3828125 C22.8125 19.1328125 22.8125 19.1328125 21.8125 20.1328125 C19.66691173 20.22056855 17.51845579 20.23976469 15.37109375 20.23046875 C14.06591797 20.22724609 12.76074219 20.22402344 11.41601562 20.22070312 C10.0273431 20.21234651 8.63867123 20.20388155 7.25 20.1953125 C5.85742344 20.19029916 4.46484519 20.18573597 3.07226562 20.18164062 C-0.3476987 20.16980684 -3.76757844 20.1533213 -7.1875 20.1328125 C-7.21638514 16.98699827 -7.23425923 13.84121781 -7.25 10.6953125 C-7.25837891 9.79748047 -7.26675781 8.89964844 -7.27539062 7.97460938 C-7.27861328 7.12060547 -7.28183594 6.26660156 -7.28515625 5.38671875 C-7.29301147 4.20057983 -7.29301147 4.20057983 -7.30102539 2.99047852 C-7.04380051 -1.21860554 -3.42587616 0.00332702 0 0 Z " fill="#ECECEC" transform="translate(122.1875,59.8671875)"/>
<path d="M0 0 C2.07232087 0.72353984 4.13022044 1.48910057 6.17578125 2.28515625 C7.33271484 2.73310547 8.48964844 3.18105469 9.68164062 3.64257812 C11.47891602 4.34543945 11.47891602 4.34543945 13.3125 5.0625 C14.53001953 5.53494141 15.74753906 6.00738281 17.00195312 6.49414062 C20.0027287 7.65914761 23.00199416 8.82788789 26 10 C25 13 25 13 23.05395508 14.04321289 C22.21759521 14.3499292 21.38123535 14.65664551 20.51953125 14.97265625 C19.1437793 15.48602539 19.1437793 15.48602539 17.74023438 16.00976562 C16.77408203 16.35716797 15.80792969 16.70457031 14.8125 17.0625 C13.86568359 17.41376953 12.91886719 17.76503906 11.94335938 18.12695312 C10.10858224 18.80427141 8.27027196 19.47211107 6.42822266 20.12939453 C4.48660458 20.82553469 2.55898497 21.56067368 0.63671875 22.30859375 C-2 23 -2 23 -7 22 C-7 14.74 -7 7.48 -7 0 C-4.25404103 -1.37297948 -2.95654528 -0.75527981 0 0 Z " fill="#EEEEEE" transform="translate(43,95)"/>
<path d="M0 0 C30.67739341 5.37207811 30.67739341 5.37207811 39.125 15.125 C41.93897422 19.43976047 43.26243067 22.02763467 43.125 27.25 C43.10695312 28.14203125 43.08890625 29.0340625 43.0703125 29.953125 C43.04710937 30.62859375 43.02390625 31.3040625 43 32 C42.01 32.495 42.01 32.495 41 33 C40.79246094 32.48050781 40.58492187 31.96101563 40.37109375 31.42578125 C38.00783747 26.07631828 35.35205939 22.59706488 30 20 C23.60754862 17.5512213 17.12995691 15.41035731 10.4375 13.9375 C6.27798098 12.80308572 3.09131873 11.09131873 0 8 C-0.14115161 5.32941149 -0.04247107 2.67567762 0 0 Z " fill="#F7F7F7" transform="translate(85,75)"/>
<path d="M0 0 C0.27585938 0.5878125 0.55171875 1.175625 0.8359375 1.78125 C4.93510895 9.59443584 10.76381888 13.08999218 18.81640625 16.02734375 C22.17649477 17.05392294 25.47684931 17.65346795 28.9375 18.25 C34.18779504 19.36117355 38.09269112 20.47341119 41.93359375 24.3046875 C43.73780802 27.17292557 43.45444677 29.75395165 43 33 C9.51234499 26.5025067 9.51234499 26.5025067 1 14 C-1.40037899 9.65645706 -1.24273087 5.85461735 -1 1 C-0.67 0.67 -0.34 0.34 0 0 Z " fill="#F6F6F6" transform="translate(55,75)"/>
<path d="M0 0 C6.6 0 13.2 0 20 0 C20 4.29 20 8.58 20 13 C13.4 13 6.8 13 0 13 C0 8.71 0 4.42 0 0 Z " fill="#151514" transform="translate(120,64)"/>
<path d="M0 0 C2.84765625 1.0234375 2.84765625 1.0234375 5 2 C5.6875 5.3125 5.6875 5.3125 6 9 C4.23468433 11.6479735 3.06900421 11.9769986 0 13 C-4.86933714 13.50343994 -8.7585086 13.67040536 -13.125 11.3125 C-15 9 -15 9 -15.5625 6.5 C-15 4 -15 4 -13.6875 1.6875 C-9.42213191 -0.99075438 -4.90540396 -0.5983897 0 0 Z " fill="#FAFAFA" transform="translate(95,115)"/>
<path d="M0 0 C3.58971119 0.57350416 5.39470118 1.55638599 7.640625 4.421875 C8.265625 6.921875 8.265625 6.921875 7.640625 9.421875 C5.40429204 12.2751274 3.62057016 13.27642587 0.03515625 13.80859375 C-4.66479401 13.99253242 -7.49822186 13.96220638 -11.546875 11.421875 C-12.145 10.761875 -12.743125 10.101875 -13.359375 9.421875 C-12.14487209 1.22398039 -7.54463991 -0.36311101 0 0 Z " fill="#FBFBFB" transform="translate(93.359375,52.578125)"/>
<path d="M0 0 C5.64951343 1.6032403 10.83555068 3.14596222 16 6 C15 8 15 8 12.3828125 9.0703125 C10.77019531 9.59238281 10.77019531 9.59238281 9.125 10.125 C8.05507813 10.47820312 6.98515625 10.83140625 5.8828125 11.1953125 C3 12 3 12 0 12 C0 8.04 0 4.08 0 0 Z " fill="#151514" transform="translate(42,100)"/>
</svg>
